<?xml version="1.0" encoding="UTF-8"?>
<svg id="Camada_1" data-name="Camada 1" xmlns="http://www.w3.org/2000/svg" viewBox="0 0 163.92 45.79">
  <defs>
    <style>
      .cls-1 {
        fill: #a346b8;
      }

      .cls-1, .cls-2, .cls-3 {
        stroke-width: 0px;
      }

      .cls-2 {
        fill: #4a0370;
      }

      .cls-3 {
        fill: #f6ebf9;
      }
    </style>
  </defs>
  <path class="cls-3" d="M2.4,25.17v-5.91h15.75v23.63H2.4v-5.91h8.34s0-3.34,0-3.34H3.4v-5.57h7.34s0-2.9,0-2.9H2.4Z"/>
  <path class="cls-1" d="M35.73,19.27l-7.94,23.63h-9.58l-7.94-23.63h7.88l4.87,16.25,4.84-16.25h7.88Z"/>
  <path class="cls-3" d="M35.27,25.17v2.9h7.34v5.57h-7.34v3.34h8.34v5.91h-15.75v-23.63h15.75v5.91h-8.34Z"/>
  <path class="cls-3" d="M69.07,42.89h-7.41l-7.84-11.88v11.88h-7.41v-23.63h7.41l7.84,12.08v-12.08h7.41v23.63Z"/>
  <path class="cls-3" d="M90.97,19.27v5.87h-6.27v17.75h-7.41v-17.75h-6.21v-5.87h19.89Z"/>
  <path class="cls-3" d="M100.38,19.27v23.63h-7.41v-23.63h7.41Z"/>
  <path class="cls-3" d="M120.4,19.27v5.87h-9.28v3.27h6.67v5.57h-6.67v8.91h-7.41v-23.63h16.69Z"/>
  <g>
    <path class="cls-1" d="M121.24,19.27l.12.23c-.01-.08-.02-.15-.03-.23h-.09Z"/>
    <path class="cls-1" d="M145.51,19.27s0,.03,0,.04c0-.01,0-.03,0-.04h-8.26l-3.77,8.38-3.77-8.38h-8.39c0,.08.02.15.03.23l3.7,7.18,4.66,9.05v7.18h7.41v-7.18l4.66-9.05,3.7-7.18h0s.12-.23.12-.23h-.09Z"/>
  </g>
  <path class="cls-2" d="M133.42,2.89c-6.73,0-12.18,5.45-12.18,12.18,0,.49.03.97.09,1.44h8.48c-.18-.45-.28-.93-.28-1.44,0-2.15,1.75-3.9,3.9-3.9s3.9,1.75,3.9,3.9c0,.51-.1,1-.28,1.44h8.48c.06-.47.09-.96.09-1.44,0-6.73-5.45-12.18-12.18-12.18Z"/>
  <circle class="cls-3" cx="133.42" cy="14.81" r="1.16"/>
  <path class="cls-2" d="M157.92,19.78c1.14.63,2.03,1.51,2.66,2.63.63,1.12.95,2.4.95,3.84s-.32,2.69-.95,3.83-1.52,2.01-2.66,2.65c-1.14.63-2.43.95-3.88.95s-2.73-.32-3.88-.95c-1.14-.63-2.04-1.51-2.68-2.65-.64-1.13-.96-2.41-.96-3.83s.32-2.72.96-3.84c.64-1.12,1.54-2,2.68-2.63,1.14-.63,2.43-.95,3.88-.95s2.73.32,3.88.95ZM157.82,30.04c.94-.98,1.41-2.24,1.41-3.79s-.47-2.84-1.41-3.81c-.94-.96-2.2-1.45-3.78-1.45s-2.87.48-3.81,1.43c-.94.95-1.41,2.23-1.41,3.83s.48,2.82,1.43,3.79c.95.98,2.22,1.46,3.79,1.46s2.83-.49,3.78-1.46ZM157.08,26.1c-.21.34-.5.62-.88.82l1.56,2.73h-2.86l-1.23-2.43h-.17v2.43h-2.66v-6.99h3.99c.78,0,1.4.21,1.86.62.47.41.7.96.7,1.65,0,.44-.11.84-.32,1.18ZM153.41,25.62h.8c.29,0,.43-.14.43-.43s-.14-.43-.43-.43h-.8v.87Z"/>
</svg>