<?xml version="1.0" encoding="UTF-8"?>
<svg id="a" data-name="Camada 1" xmlns="http://www.w3.org/2000/svg" viewBox="0 0 50 50">
  <defs>
    <style>
      .b {
        fill: #a346b8;
      }

      .b, .c, .d {
        stroke-width: 0px;
      }

      .c {
        fill: #4a0370;
      }

      .d {
        fill: #f6ebf9;
      }
    </style>
  </defs>
  <polygon class="b" points="39.31 20.71 29.54 20.71 25.08 30.62 20.62 20.71 10.69 20.71 10.59 20.71 10.73 20.98 15.1 29.47 20.62 40.17 20.62 48.66 29.38 48.66 29.38 40.17 34.9 29.47 39.27 20.98 39.27 20.98 39.41 20.71 39.31 20.71"/>
  <path class="c" d="M25,1.34c-7.96,0-14.41,6.45-14.41,14.41,0,.58.04,1.15.1,1.71h10.03c-.21-.53-.33-1.1-.33-1.71,0-2.54,2.07-4.61,4.61-4.61s4.61,2.07,4.61,4.61c0,.6-.12,1.18-.33,1.71h10.03c.07-.56.1-1.13.1-1.71,0-7.96-6.45-14.41-14.41-14.41Z"/>
  <path class="d" d="M25,14.07c-.76,0-1.37.61-1.37,1.37s.61,1.37,1.37,1.37,1.37-.61,1.37-1.37-.61-1.37-1.37-1.37Z"/>
</svg>