<?xml version="1.0" encoding="UTF-8"?>
<svg id="a" data-name="Camada 1" xmlns="http://www.w3.org/2000/svg" viewBox="0 0 163.92 45.79">
  <defs>
    <style>
      .b {
        fill: #a346b8;
      }

      .b, .c, .d {
        stroke-width: 0px;
      }

      .c {
        fill: #4a0370;
      }

      .d {
        fill: #f6ebf9;
      }
    </style>
  </defs>
  <polygon class="d" points="18.15 19.27 18.15 19.27 18.15 19.27 18.15 19.27"/>
  <g>
    <polygon class="b" points="18.15 19.27 18.15 19.27 10.27 19.27 18.15 42.7 18.21 42.89 27.79 42.89 27.86 42.7 27.86 19.27 23.02 35.52 18.15 19.27"/>
    <polygon class="b" points="145.51 19.27 137.25 19.27 133.48 27.64 129.71 19.27 121.32 19.27 121.24 19.27 121.35 19.49 125.05 26.67 129.71 35.72 129.71 42.89 137.12 42.89 137.12 35.72 141.78 26.67 145.48 19.49 145.48 19.49 145.6 19.27 145.51 19.27"/>
  </g>
  <g>
    <polygon class="d" points="2.4 19.27 2.4 25.17 10.74 25.17 10.74 28.08 3.4 28.08 3.4 33.65 10.74 33.65 10.74 36.99 2.4 36.99 2.4 42.89 18.15 42.89 18.15 42.7 10.27 19.27 2.4 19.27"/>
    <polygon class="d" points="27.86 19.27 27.86 42.7 27.86 42.89 43.61 42.89 43.61 36.99 35.27 36.99 35.27 33.65 42.61 33.65 42.61 28.08 35.27 28.08 35.27 25.17 43.61 25.17 43.61 19.27 35.74 19.27 27.86 19.27"/>
    <polygon class="d" points="61.67 31.35 53.82 19.27 46.41 19.27 46.41 42.89 53.82 42.89 53.82 31.01 61.67 42.89 69.07 42.89 69.07 19.27 61.67 19.27 61.67 31.35"/>
    <polygon class="d" points="71.08 25.14 77.28 25.14 77.28 42.89 84.69 42.89 84.69 25.14 90.97 25.14 90.97 19.27 71.08 19.27 71.08 25.14"/>
    <rect class="d" x="92.97" y="19.27" width="7.41" height="23.63"/>
    <polygon class="d" points="103.72 42.89 111.12 42.89 111.12 33.98 117.8 33.98 117.8 28.41 111.12 28.41 111.12 25.14 120.4 25.14 120.4 19.27 103.72 19.27 103.72 42.89"/>
    <path class="d" d="M133.42,13.65c-.64,0-1.16.52-1.16,1.16s.52,1.16,1.16,1.16,1.16-.52,1.16-1.16-.52-1.16-1.16-1.16Z"/>
  </g>
  <g>
    <path class="c" d="M133.42,2.89c-6.73,0-12.18,5.45-12.18,12.18,0,.49.03.97.09,1.44h8.48c-.18-.45-.28-.93-.28-1.44,0-2.15,1.75-3.9,3.9-3.9s3.9,1.75,3.9,3.9c0,.51-.1,1-.28,1.44h8.48c.06-.47.09-.96.09-1.44,0-6.73-5.45-12.18-12.18-12.18Z"/>
    <path class="c" d="M160.58,22.41c-.63-1.12-1.52-2-2.66-2.63-1.14-.63-2.43-.95-3.88-.95s-2.73.32-3.88.95c-1.14.63-2.04,1.51-2.68,2.63-.64,1.12-.96,2.4-.96,3.84s.32,2.69.96,3.83c.64,1.13,1.54,2.01,2.68,2.65,1.14.63,2.43.95,3.88.95s2.73-.32,3.88-.95c1.14-.63,2.03-1.51,2.66-2.65.63-1.13.95-2.41.95-3.83s-.32-2.72-.95-3.84ZM157.82,30.04c-.94.98-2.2,1.46-3.78,1.46s-2.84-.49-3.79-1.46c-.95-.98-1.43-2.24-1.43-3.79s.47-2.87,1.41-3.83c.94-.95,2.21-1.43,3.81-1.43s2.83.48,3.78,1.45c.94.96,1.41,2.23,1.41,3.81s-.47,2.82-1.41,3.79Z"/>
    <path class="c" d="M157.08,26.1c.21-.34.32-.74.32-1.18,0-.69-.23-1.24-.7-1.65-.47-.41-1.09-.62-1.86-.62h-3.99v6.99h2.66v-2.43h.17l1.23,2.43h2.86l-1.56-2.73c.38-.2.67-.47.88-.82ZM154.21,25.62h-.8v-.86h.8c.29,0,.43.14.43.43s-.14.43-.43.43Z"/>
  </g>
</svg>